<?xml version="1.0" encoding="UTF-8"?>
<svg width="512" height="512" viewBox="0 0 512 512" fill="none" xmlns="http://www.w3.org/2000/svg">
  <rect width="512" height="512" rx="128" fill="#4F46E5"/>
  <path d="M256 128C184.471 128 128 184.471 128 256C128 327.529 184.471 384 256 384C327.529 384 384 327.529 384 256C384 184.471 327.529 128 256 128ZM176 256C176 211.817 211.817 176 256 176C300.183 176 336 211.817 336 256C336 300.183 300.183 336 256 336C211.817 336 176 300.183 176 256Z" fill="white"/>
  <path d="M256 208C229.49 208 208 229.49 208 256C208 282.51 229.49 304 256 304C282.51 304 304 282.51 304 256C304 229.49 282.51 208 256 208ZM256 288C238.327 288 224 273.673 224 256C224 238.327 238.327 224 256 224C273.673 224 288 238.327 288 256C288 273.673 273.673 288 256 288Z" fill="white"/>
</svg>